# xmcd
#
# Track frame offsets: 
#        150
#        13766
#        31697
#        48739
#        65676
#        76668
#        96812
#        113511
#        126524
#        143656
#        154816
#        171137
#
# Disc length: 2479 seconds
#
# Revision: 0
# Processed by: cddbd v1.5.2PL0 Copyright (c) Steve Scherf et al.
# Submitted via: ExactAudioCopy v1.3
#
DISCID=9609ad0c
DTITLE=Dick Annegarn - Twist
DYEAR=2016
DGENRE=Chanson
TTITLE0=Roule ma poule
TTITLE1=Au marché des mendiants
TTITLE2=Dur la vie
TTITLE3=Luxembourg
TTITLE4=On est deux
TTITLE5=Terre
TTITLE6=Tranquille
TTITLE7=Chaque soleil
TTITLE8=Ma mécène
TTITLE9=Twist ensemble
TTITLE10=Sanglier
TTITLE11=Ma carcasse
EXTD=
EXTT0=
EXTT1=
EXTT2=
EXTT3=
EXTT4=
EXTT5=
EXTT6=
EXTT7=
EXTT8=
EXTT9=
EXTT10=
EXTT11=
PLAYORDER=
